Units are S.I. units (second, meters, Newtons, ...)
Angles are in degrees.
name squat
datarows 49
datacolumns 15
range 0.000000 0.489796
endheader
time exo_pelvis_tx exo_pelvis_ty exo_pelvis_tz exo_pelvis_tilt exo_pelvis_list exo_pelvis_rotation exo_hip_r exo_hip_l exo_knee_r exo_knee_l r_ankle_coupling l_ankle_coupling r_foot l_foot 
0.000000	-0.345526	0.945373	-0.000002	0.000000	0.000000	0.000000	-4.991319	-4.992626	2.132662	2.135478	2.858654	2.857152	0.000111	-0.000097
0.010204	-0.345526	0.945373	-0.000002	0.000000	0.000000	0.000000	-4.991319	-4.080877	2.132662	1.056895	2.858654	3.003564	0.000111	0.000011
0.020408	-0.345526	0.945373	-0.000002	0.000000	0.000000	0.000000	-4.991319	-3.169128	2.132662	-0.021689	2.858654	3.149976	0.000111	0.000120
0.030612	-0.345526	0.945373	-0.000002	0.000000	0.000000	0.000000	-4.991319	-2.257379	2.132662	-1.100272	2.858654	3.296388	0.000111	0.000228
0.040816	-0.345526	0.945373	-0.000002	0.000000	0.000000	0.000000	-4.991319	-1.345630	2.132662	-2.178856	2.858654	3.442800	0.000111	0.000337
0.051020	-0.345526	0.945373	-0.000002	0.000000	0.000000	0.000000	-4.991319	-0.433880	2.132662	-3.257439	2.858654	3.589212	0.000111	0.000445
0.061224	-0.345526	0.945373	-0.000002	0.000000	0.000000	0.000000	-4.991319	0.477869	2.132662	-4.336023	2.858654	3.735624	0.000111	0.000554
0.071429	-0.345526	0.945373	-0.000002	0.000000	0.000000	0.000000	-4.991319	1.389618	2.132662	-5.414606	2.858654	3.882036	0.000111	0.000662
0.081633	-0.345526	0.945373	-0.000002	0.000000	0.000000	0.000000	-4.991319	2.301367	2.132662	-6.493189	2.858654	4.028448	0.000111	0.000771
0.091837	-0.345526	0.945373	-0.000002	0.000000	0.000000	0.000000	-4.991319	3.213116	2.132662	-7.571773	2.858654	4.174860	0.000111	0.000879
0.102041	-0.345526	0.945373	-0.000002	0.000000	0.000000	0.000000	-4.991319	4.124865	2.132662	-8.650356	2.858654	4.321272	0.000111	0.000988
0.112245	-0.345526	0.945373	-0.000002	0.000000	0.000000	0.000000	-4.991319	5.036614	2.132662	-9.728940	2.858654	4.467684	0.000111	0.001097
0.122449	-0.345526	0.945373	-0.000002	0.000000	0.000000	0.000000	-4.991319	5.948363	2.132662	-10.807523	2.858654	4.614096	0.000111	0.001205
0.132653	-0.345526	0.945373	-0.000002	0.000000	0.000000	0.000000	-4.991319	6.860112	2.132662	-11.886107	2.858654	4.760508	0.000111	0.001314
0.142857	-0.345526	0.945373	-0.000002	0.000000	0.000000	0.000000	-4.991319	7.771861	2.132662	-12.964690	2.858654	4.906920	0.000111	0.001422
0.153061	-0.345526	0.945373	-0.000002	0.000000	0.000000	0.000000	-4.991319	8.683611	2.132662	-14.043273	2.858654	5.053332	0.000111	0.001531
0.163265	-0.345526	0.945373	-0.000002	0.000000	0.000000	0.000000	-4.991319	9.595360	2.132662	-15.121857	2.858654	5.199744	0.000111	0.001639
0.173469	-0.345526	0.945373	-0.000002	0.000000	0.000000	0.000000	-4.991319	10.507109	2.132662	-16.200440	2.858654	5.346156	0.000111	0.001748
0.183673	-0.345526	0.945373	-0.000002	0.000000	0.000000	0.000000	-4.991319	11.418858	2.132662	-17.279024	2.858654	5.492568	0.000111	0.001856
0.193878	-0.345526	0.945373	-0.000002	0.000000	0.000000	0.000000	-4.991319	12.330607	2.132662	-18.357607	2.858654	5.638980	0.000111	0.001965
0.204082	-0.345526	0.945373	-0.000002	0.000000	0.000000	0.000000	-4.991319	13.242356	2.132662	-19.436191	2.858654	5.785392	0.000111	0.002073
0.214286	-0.345526	0.945373	-0.000002	0.000000	0.000000	0.000000	-4.991319	14.154105	2.132662	-20.514774	2.858654	5.931804	0.000111	0.002182
0.224490	-0.345526	0.945373	-0.000002	0.000000	0.000000	0.000000	-4.991319	15.065854	2.132662	-21.593357	2.858654	6.078216	0.000111	0.002290
0.234694	-0.345526	0.945373	-0.000002	0.000000	0.000000	0.000000	-4.991319	15.977603	2.132662	-22.671941	2.858654	6.224628	0.000111	0.002399
0.244898	-0.345526	0.945373	-0.000002	0.000000	0.000000	0.000000	-4.991319	16.889352	2.132662	-23.750524	2.858654	6.371040	0.000111	0.002508
0.255102	-0.345526	0.945373	-0.000002	0.000000	0.000000	0.000000	-4.991319	17.801102	2.132662	-24.829108	2.858654	6.517452	0.000111	0.002616
0.265306	-0.345526	0.945373	-0.000002	0.000000	0.000000	0.000000	-4.991319	18.712851	2.132662	-25.907691	2.858654	6.663864	0.000111	0.002725
0.275510	-0.345526	0.945373	-0.000002	0.000000	0.000000	0.000000	-4.991319	19.624600	2.132662	-26.986275	2.858654	6.810276	0.000111	0.002833
0.285714	-0.345526	0.945373	-0.000002	0.000000	0.000000	0.000000	-4.991319	20.536349	2.132662	-28.064858	2.858654	6.956688	0.000111	0.002942
0.295918	-0.345526	0.945373	-0.000002	0.000000	0.000000	0.000000	-4.991319	21.448098	2.132662	-29.143441	2.858654	7.103100	0.000111	0.003050
0.306122	-0.345526	0.945373	-0.000002	0.000000	0.000000	0.000000	-4.991319	22.359847	2.132662	-30.222025	2.858654	7.249512	0.000111	0.003159
0.316327	-0.345526	0.945373	-0.000002	0.000000	0.000000	0.000000	-4.991319	23.271596	2.132662	-31.300608	2.858654	7.395924	0.000111	0.003267
0.326531	-0.345526	0.945373	-0.000002	0.000000	0.000000	0.000000	-4.991319	24.183345	2.132662	-32.379192	2.858654	7.542336	0.000111	0.003376
0.336735	-0.345526	0.945373	-0.000002	0.000000	0.000000	0.000000	-4.991319	25.095094	2.132662	-33.457775	2.858654	7.688748	0.000111	0.003484
0.346939	-0.345526	0.945373	-0.000002	0.000000	0.000000	0.000000	-4.991319	26.006843	2.132662	-34.536359	2.858654	7.835160	0.000111	0.003593
0.357143	-0.345526	0.945373	-0.000002	0.000000	0.000000	0.000000	-4.991319	26.918593	2.132662	-35.614942	2.858654	7.981572	0.000111	0.003701
0.367347	-0.345526	0.945373	-0.000002	0.000000	0.000000	0.000000	-4.991319	27.830342	2.132662	-36.693525	2.858654	8.127984	0.000111	0.003810
0.377551	-0.345526	0.945373	-0.000002	0.000000	0.000000	0.000000	-4.991319	28.742091	2.132662	-37.772109	2.858654	8.274396	0.000111	0.003918
0.387755	-0.345526	0.945373	-0.000002	0.000000	0.000000	0.000000	-4.991319	29.653840	2.132662	-38.850692	2.858654	8.420808	0.000111	0.004027
0.397959	-0.345526	0.945373	-0.000002	0.000000	0.000000	0.000000	-4.991319	30.565589	2.132662	-39.929276	2.858654	8.567220	0.000111	0.004136
0.408163	-0.345526	0.945373	-0.000002	0.000000	0.000000	0.000000	-4.991319	31.477338	2.132662	-41.007859	2.858654	8.713632	0.000111	0.004244
0.418367	-0.345526	0.945373	-0.000002	0.000000	0.000000	0.000000	-4.991319	32.389087	2.132662	-42.086443	2.858654	8.860044	0.000111	0.004353
0.428571	-0.345526	0.945373	-0.000002	0.000000	0.000000	0.000000	-4.991319	33.300836	2.132662	-43.165026	2.858654	9.006456	0.000111	0.004461
0.438776	-0.345526	0.945373	-0.000002	0.000000	0.000000	0.000000	-4.991319	34.212585	2.132662	-44.243609	2.858654	9.152868	0.000111	0.004570
0.448980	-0.345526	0.945373	-0.000002	0.000000	0.000000	0.000000	-4.991319	35.124334	2.132662	-45.322193	2.858654	9.299280	0.000111	0.004678
0.459184	-0.345526	0.945373	-0.000002	0.000000	0.000000	0.000000	-4.991319	36.036084	2.132662	-46.400776	2.858654	9.445692	0.000111	0.004787
0.469388	-0.345526	0.945373	-0.000002	0.000000	0.000000	0.000000	-4.991319	36.947833	2.132662	-47.479360	2.858654	9.592104	0.000111	0.004895
0.479592	-0.345526	0.945373	-0.000002	0.000000	0.000000	0.000000	-4.991319	37.859582	2.132662	-48.557943	2.858654	9.738516	0.000111	0.005004
0.489796	-0.345526	0.945373	-0.000002	0.000000	0.000000	0.000000	-4.991319	38.771331	2.132662	-49.636527	2.858654	9.884928	0.000111	0.005112
